<?xml version="1.0" encoding="UTF-8" standalone="no"?>
<svg
   xmlns:dc="http://purl.org/dc/elements/1.1/"
   xmlns:cc="http://creativecommons.org/ns#"
   xmlns:rdf="http://www.w3.org/1999/02/22-rdf-syntax-ns#"
   xmlns:svg="http://www.w3.org/2000/svg"
   xmlns="http://www.w3.org/2000/svg"
   xmlns:sodipodi="http://sodipodi.sourceforge.net/DTD/sodipodi-0.dtd"
   xmlns:inkscape="http://www.inkscape.org/namespaces/inkscape"
   width="20mm"
   height="20mm"
   viewBox="0 0 20 20"
   version="1.1"
   id="svg8"
   inkscape:version="1.0.2 (e86c870879, 2021-01-15, custom)"
   sodipodi:docname="stand_5.svg">
  <defs
     id="defs2" />
  <sodipodi:namedview
     id="base"
     pagecolor="#ffffff"
     bordercolor="#666666"
     borderopacity="1.0"
     inkscape:pageopacity="0.0"
     inkscape:pageshadow="2"
     inkscape:zoom="3.959798"
     inkscape:cx="47.952644"
     inkscape:cy="85.889233"
     inkscape:document-units="mm"
     inkscape:current-layer="layer1"
     inkscape:document-rotation="0"
     showgrid="false"
     inkscape:window-width="2560"
     inkscape:window-height="1346"
     inkscape:window-x="-11"
     inkscape:window-y="-11"
     inkscape:window-maximized="1"
     inkscape:pagecheckerboard="false"
     units="mm" />
  <metadata
     id="metadata5">
    <rdf:RDF>
      <cc:Work
         rdf:about="">
        <dc:format>image/svg+xml</dc:format>
        <dc:type
           rdf:resource="http://purl.org/dc/dcmitype/StillImage" />
        <dc:title />
      </cc:Work>
    </rdf:RDF>
  </metadata>
  <g
     inkscape:label="레이어 1"
     inkscape:groupmode="layer"
     id="layer1">
    <text
       xml:space="preserve"
       style="font-style:normal;font-weight:normal;font-size:10.5833px;line-height:1.25;font-family:sans-serif;fill:#000000;fill-opacity:1;stroke:none;stroke-width:0.264583"
       x="22.116554"
       y="9.5441399"
       id="text844"><tspan
         sodipodi:role="line"
         id="tspan842"
         x="22.116554"
         y="9.5441399"
         style="stroke-width:0.264583" /></text>
    <text
       xml:space="preserve"
       style="font-style:normal;font-weight:normal;font-size:10.5833px;line-height:1.25;font-family:sans-serif;fill:#000000;fill-opacity:1;stroke:none;stroke-width:0.264583"
       x="28.831699"
       y="17.428593"
       id="text848"><tspan
         sodipodi:role="line"
         id="tspan846"
         x="28.831699"
         y="17.428593"
         style="stroke-width:0.264583" /></text>
    <rect
       style="fill:#8ee68c;fill-opacity:0.146479;stroke:#ff0000;stroke-width:0.158497;stroke-miterlimit:4;stroke-dasharray:none;stroke-opacity:1"
       id="rect867"
       width="4.824491"
       height="2.7064221"
       x="2.2314041"
       y="2.1231894" />
    <rect
       style="fill:#8ee68c;fill-opacity:0.146479;stroke:#ff0000;stroke-width:0.158497;stroke-miterlimit:4;stroke-dasharray:none;stroke-opacity:1"
       id="rect874"
       width="4.8131356"
       height="12.34405"
       x="2.2314041"
       y="4.8296127" />
    <path
       style="fill:#8ee68c;fill-opacity:0.146479;stroke:#ff0000;stroke-width:0.158497;stroke-linecap:butt;stroke-linejoin:miter;stroke-miterlimit:4;stroke-dasharray:none;stroke-opacity:1"
       d="M 7.0795713,4.8442262 15.458253,17.206117"
       id="path880" />
    <path
       style="fill:#8ee68c;fill-opacity:0.146479;stroke:#ff0000;stroke-width:0.158497;stroke-linecap:butt;stroke-linejoin:miter;stroke-miterlimit:4;stroke-dasharray:none;stroke-opacity:1"
       d="m 7.0416349,17.174259 8.4545551,0.04587"
       id="path882" />
    <path
       style="fill:none;fill-opacity:0.146479;stroke:#ff0000;stroke-width:0.158497;stroke-linecap:butt;stroke-linejoin:miter;stroke-miterlimit:4;stroke-dasharray:none;stroke-opacity:1"
       d="m 7.0445399,4.829611 -4.8131356,12.344053 5e-7,-12.344053 4.8102301,12.344648"
       id="path884" />
    <path
       style="fill:none;fill-opacity:0.146479;stroke:#ff0000;stroke-width:0.0400264;stroke-miterlimit:4;stroke-dasharray:none;stroke-opacity:1"
       d="M 2.3231945,3.4792616 V 2.2201874 H 4.6413027 6.9594124 V 3.4792616 4.7383358 H 4.6413027 2.3231945 Z"
       id="path901" />
    <path
       style="fill:none;fill-opacity:0.146479;stroke:#ff0000;stroke-width:0.0400264;stroke-miterlimit:4;stroke-dasharray:none;stroke-opacity:1"
       d="M 4.5234995,10.456647 C 4.4606896,10.295113 3.9511789,8.9874181 3.3912528,7.5506612 L 2.3732045,4.938376 3.5149254,4.9322686 c 0.6279459,-0.00334 1.6471252,-0.00334 2.2648426,0 l 1.1231229,0.00611 -1.124472,2.8829274 c -0.6184598,1.5856076 -1.1281276,2.893302 -1.1325963,2.905984 -0.00447,0.01268 -0.059513,-0.109108 -0.1223231,-0.270643 z"
       id="path903" />
    <path
       style="fill:none;fill-opacity:0.146479;stroke:#ff0000;stroke-width:0.0400264;stroke-miterlimit:4;stroke-dasharray:none;stroke-opacity:1"
       d="M 2.3263976,10.99841 2.3257635,5.3384555 2.3737885,5.456126 C 2.4002015,5.520845 2.897938,6.795513 3.4798674,8.2887224 L 4.5379209,11.00365 3.4633586,13.760403 c -0.5910098,1.516215 -1.0884589,2.788525 -1.1054423,2.827357 -0.025596,0.05852 -0.030988,-0.897888 -0.031516,-5.58935 z"
       id="path905" />
    <path
       style="fill:none;fill-opacity:0.146479;stroke:#ff0000;stroke-width:0.0400264;stroke-miterlimit:4;stroke-dasharray:none;stroke-opacity:1"
       d="m 5.8436753,13.844478 -1.10397,-2.833367 0.034056,-0.0946 c 0.01873,-0.05203 0.5155172,-1.3297344 1.1039697,-2.8393382 l 1.0699137,-2.7447366 0.00597,2.8329854 c 0.00328,1.5581436 0.00328,4.1108614 0,5.6727074 l -0.00597,2.839718 z"
       id="path907" />
    <path
       style="fill:none;fill-opacity:0.146479;stroke:#ff0000;stroke-width:0.0400264;stroke-miterlimit:4;stroke-dasharray:none;stroke-opacity:1"
       d="m 2.3803975,17.052558 c 0.00835,-0.02265 0.5195607,-1.335597 1.1360382,-2.917657 l 1.1208676,-2.876471 1.1023142,2.829404 c 0.6062731,1.556172 1.1180715,2.869116 1.13733,2.917655 l 0.035017,0.08825 H 4.6385959 c -2.1552012,0 -2.2725787,-0.0021 -2.2581967,-0.04119 z"
       id="path909" />
    <path
       style="fill:#8ee68c;fill-opacity:0.146479;stroke:#ff0000;stroke-width:0.0400264;stroke-miterlimit:4;stroke-dasharray:none;stroke-opacity:1"
       d="m 9.0715981,17.099628 -1.947447,-0.0061 V 11.087774 5.0820752 l 0.066703,0.092889 c 0.1512025,0.2105606 8.0760969,11.9156628 8.0760969,11.9284278 0,0.01288 -1.151759,0.01218 -6.1953528,-0.0037 z"
       id="path911" />
  </g>
</svg>
